<svg width="16" height="16" viewBox="0 0 16 16" fill="none" xmlns="http://www.w3.org/2000/svg">
<path d="M10 6.74993C5 8.25 1.5 6.01871 1.5 4.49993M1.5 4.49993C1.5 2.98114 3.5 1.24998 8.5 1.74993M1.5 4.49993V11.9999C1.5 13.5187 3.96243 14.7499 7 14.7499C9.65218 14.7499 12.5 13.25 12.5 11.9999C12.5754 11.8184 12.5 8.94269 12.5 8.75M1.5 4.49993V6.99993M1.5 6.99993V9.49993C1.5 11.0187 3.96243 12.2499 7 12.2499C10.0376 12.2499 12.5 11.0187 12.5 9.49993V6.99993C12.5 8.51871 10.0376 9.74993 7 9.74993C3.96243 9.74993 1.5 8.51871 1.5 6.99993Z" stroke="#CFD1D4" stroke-width="1.5" stroke-linecap="round" stroke-linejoin="round"/>
<path d="M14.5 3C14.5 4.24264 13.4926 5.25 12.25 5.25C11.0074 5.25 10 4.24264 10 3C10 1.75736 11.0074 0.75 12.25 0.75C13.4926 0.75 14.5 1.75736 14.5 3Z" fill="#90CB62"/>
</svg>
