<svg width="16" height="16" viewBox="0 0 16 16" fill="none" xmlns="http://www.w3.org/2000/svg">
<path fill-rule="evenodd" clip-rule="evenodd" d="M1.84428 3.61212C1.78322 3.8136 1.75 4.02629 1.75 4.25V6.75V9.25V11.75C1.75 12.9465 2.70047 13.8278 3.7755 14.3654C4.8954 14.9253 6.39003 15.25 8 15.25C9.60997 15.25 11.1046 14.9253 12.2245 14.3654C12.3066 14.3243 12.388 14.2812 12.4683 14.2362L11.3513 13.1192C10.4937 13.5011 9.32052 13.75 8 13.75C6.5724 13.75 5.31704 13.4591 4.44632 13.0237C3.53075 12.5659 3.25 12.0723 3.25 11.75V11.5667C3.4191 11.6758 3.59555 11.7754 3.7755 11.8654C4.8954 12.4253 6.39003 12.75 8 12.75C8.94541 12.75 9.85104 12.638 10.6644 12.4322L9.38715 11.155C8.95021 11.2164 8.48504 11.25 8 11.25C6.5724 11.25 5.31704 10.9591 4.44632 10.5237C3.53075 10.0659 3.25 9.57227 3.25 9.25V9.06668C3.4191 9.17578 3.59555 9.27539 3.7755 9.36536C4.8954 9.92531 6.39003 10.25 8 10.25C8.15879 10.25 8.31647 10.2468 8.47277 10.2406L6.92581 8.69365C5.94601 8.58907 5.0908 8.34596 4.44632 8.02372C3.53075 7.56594 3.25 7.07227 3.25 6.75V6.56667C3.4191 6.67578 3.59555 6.77539 3.7755 6.86536C4.35053 7.15288 5.02437 7.37837 5.76188 7.52973L1.84428 3.61212ZM11.3165 8.13457C11.3984 8.09879 11.4775 8.06181 11.5537 8.02372C12.4693 7.56594 12.75 7.07227 12.75 6.75V6.56668C12.5809 6.67578 12.4044 6.77539 12.2245 6.86536C11.7514 7.1019 11.2115 7.29646 10.6242 7.4423L9.343 6.16109C10.2105 6.04339 10.9689 5.81613 11.5537 5.52372C12.4693 5.06594 12.75 4.57227 12.75 4.25C12.75 3.92773 12.4693 3.43406 11.5537 2.97628C10.683 2.54092 9.4276 2.25 8 2.25C7.16068 2.25 6.3809 2.35056 5.70381 2.52191L4.50438 1.32247C5.50914 0.955876 6.718 0.75 8 0.75C9.60997 0.75 11.1046 1.07469 12.2245 1.63464C13.2995 2.17215 14.25 3.05349 14.25 4.25V6.75V9.25V11.0681L12.6949 9.51301C12.7333 9.41717 12.75 9.3285 12.75 9.25V9.06668C12.6478 9.13265 12.5428 9.19515 12.436 9.25414L11.3165 8.13457Z" fill="#A8ACB2"/>
<path d="M1.68677 0.979736L14.3534 13.6464" stroke="#A8ACB2" stroke-width="1.5" stroke-linecap="round"/>
</svg>
