<svg width="16" height="16" viewBox="0 0 16 16" fill="none" xmlns="http://www.w3.org/2000/svg">
<path d="M10.4036 1C7.6534 1 5.80737 2.75488 5.80737 6.14278V8.55078C6.07097 8.40792 6.37253 8.32621 6.69263 8.32621C7.01276 8.32621 7.31431 8.40792 7.59689 8.55078V6.12224C7.59689 3.91827 8.7082 2.79595 10.4036 2.79595C12.0991 2.79595 13.2104 3.91827 13.2104 6.12224V11.4079H14.9999V6.12224C15.0189 2.71426 13.1539 1 10.4036 1Z" fill="white"/>
<path d="M1.77619 6.81646C1.55014 6.93878 1.34305 7.14279 1.19206 7.40841C1.0415 7.67359 0.984985 7.95929 1.00354 8.245C1.02252 8.75527 1.28612 9.22444 1.71925 9.48962C2.11487 9.73424 2.56699 9.67309 3.00013 9.57131C3.52773 9.42845 3.97985 9.3673 4.45054 9.67355H4.46952C5.2797 10.1838 5.2797 11.4695 4.46952 11.9793H4.45054C3.97944 12.2855 3.52732 12.2243 3.00013 12.0815C2.58554 11.9592 2.13342 11.8981 1.71925 12.1633C1.28612 12.4284 1.04108 12.9181 1.00354 13.4078C0.984562 13.6935 1.04108 13.9792 1.19206 14.2444C1.34263 14.5097 1.53116 14.7136 1.77619 14.8364C2.19078 15.0609 2.69941 15.0609 3.13255 14.7958C3.52816 14.5512 3.71668 14.0816 3.82971 13.6323C3.98028 13.0611 4.14982 12.6118 4.6399 12.3261C5.111 12.0199 5.56312 12.0815 6.09031 12.2243C6.5049 12.3467 6.95702 12.4079 7.37118 12.1427C7.80433 11.8775 8.04936 11.3878 8.0869 10.8981V10.6941C8.06792 10.1838 7.80433 9.71463 7.37118 9.44945C6.97557 9.20436 6.52345 9.26598 6.09031 9.36776C5.56271 9.51062 5.11059 9.57177 4.6399 9.26552C4.1688 8.95928 3.98071 8.5307 3.82971 7.95929C3.71668 7.51019 3.52816 7.06154 3.13255 6.79592C2.69941 6.59191 2.19078 6.59191 1.77619 6.81646Z" fill="white"/>
</svg>
