<svg width="1em" height="1em" viewBox="0 0 24 24" fill="none" xmlns="http://www.w3.org/2000/svg"><path d="M13.0312 13.5625C12.6824 13.5625 12.337 13.4938 12.0147 13.3603C11.6925 13.2268 11.3997 13.0312 11.153 12.7845C10.9063 12.5378 10.7107 12.245 10.5772 11.9228C10.4437 11.6005 10.375 11.2551 10.375 10.9062C10.375 10.5574 10.4437 10.212 10.5772 9.88975C10.7107 9.56748 10.9063 9.27465 11.153 9.028C11.3997 8.78134 11.6925 8.58568 12.0147 8.45219C12.337 8.31871 12.6824 8.25 13.0312 8.25C13.3801 8.25 13.7255 8.31871 14.0478 8.45219C14.37 8.58568 14.6628 8.78134 14.9095 9.028C15.1562 9.27465 15.3518 9.56748 15.4853 9.88975C15.6188 10.212 15.6875 10.5574 15.6875 10.9062C15.6875 11.2551 15.6188 11.6005 15.4853 11.9228C15.3518 12.245 15.1562 12.5378 14.9095 12.7845C14.6628 13.0312 14.37 13.2268 14.0478 13.3603C13.7255 13.4938 13.3801 13.5625 13.0312 13.5625ZM13.0312 13.5625V16.75M13.0312 16.75C13.4539 16.75 13.8593 16.9179 14.1582 17.2168C14.4571 17.5157 14.625 17.9211 14.625 18.3438C14.625 18.7664 14.4571 19.1718 14.1582 19.4707C13.8593 19.7696 13.4539 19.9375 13.0312 19.9375C12.6086 19.9375 12.2032 19.7696 11.9043 19.4707C11.6054 19.1718 11.4375 18.7664 11.4375 18.3438C11.4375 17.9211 11.6054 17.5157 11.9043 17.2168C12.2032 16.9179 12.6086 16.75 13.0312 16.75ZM14.9091 9.02926L17.2182 6.72009M15.3645 12.177L16.983 13.7955M11.1548 12.7827L6.71997 17.2176M10.5528 9.95081L7.4425 8.08435M16.75 5.59375C16.75 6.01644 16.9179 6.42182 17.2168 6.7207C17.5157 7.01959 17.9211 7.1875 18.3438 7.1875C18.7664 7.1875 19.1718 7.01959 19.4707 6.7207C19.7696 6.42182 19.9375 6.01644 19.9375 5.59375C19.9375 5.17106 19.7696 4.76568 19.4707 4.4668C19.1718 4.16791 18.7664 4 18.3438 4C17.9211 4 17.5157 4.16791 17.2168 4.4668C16.9179 4.76568 16.75 5.17106 16.75 5.59375ZM16.75 14.625C16.75 15.0477 16.9179 15.4531 17.2168 15.752C17.5157 16.0508 17.9211 16.2187 18.3438 16.2187C18.7664 16.2187 19.1718 16.0508 19.4707 15.752C19.7696 15.4531 19.9375 15.0477 19.9375 14.625C19.9375 14.2023 19.7696 13.7969 19.4707 13.498C19.1718 13.1992 18.7664 13.0312 18.3438 13.0312C17.9211 13.0312 17.5157 13.1992 17.2168 13.498C16.9179 13.7969 16.75 14.2023 16.75 14.625ZM4 18.3438C4 18.553 4.04122 18.7603 4.12132 18.9537C4.20141 19.147 4.31881 19.3227 4.4668 19.4707C4.61479 19.6187 4.79049 19.7361 4.98385 19.8162C5.17721 19.8963 5.38446 19.9375 5.59375 19.9375C5.80304 19.9375 6.01029 19.8963 6.20365 19.8162C6.39701 19.7361 6.57271 19.6187 6.7207 19.4707C6.86869 19.3227 6.98609 19.147 7.06618 18.9537C7.14628 18.7603 7.1875 18.553 7.1875 18.3438C7.1875 18.1345 7.14628 17.9272 7.06618 17.7338C6.98609 17.5405 6.86869 17.3648 6.7207 17.2168C6.57271 17.0688 6.39701 16.9514 6.20365 16.8713C6.01029 16.7912 5.80304 16.75 5.59375 16.75C5.38446 16.75 5.17721 16.7912 4.98385 16.8713C4.79049 16.9514 4.61479 17.0688 4.4668 17.2168C4.31881 17.3648 4.20141 17.5405 4.12132 17.7338C4.04122 17.9272 4 18.1345 4 18.3438ZM4.53125 7.1875C4.53125 7.61019 4.69916 8.01557 4.99805 8.31445C5.29693 8.61334 5.70231 8.78125 6.125 8.78125C6.54769 8.78125 6.95307 8.61334 7.25195 8.31445C7.55084 8.01557 7.71875 7.61019 7.71875 7.1875C7.71875 6.76481 7.55084 6.35943 7.25195 6.06055C6.95307 5.76166 6.54769 5.59375 6.125 5.59375C5.70231 5.59375 5.29693 5.76166 4.99805 6.06055C4.69916 6.35943 4.53125 6.76481 4.53125 7.1875Z" stroke="currentColor" stroke-width="1.5" stroke-linecap="round" stroke-linejoin="round"></path></svg>