<svg width="16" height="16" viewBox="135 135 240 240" fill="none" xmlns="http://www.w3.org/2000/svg">
<g clip-path="url(#clip0_3676_6462)">
<path fill="#4C99A4" style="fill:#4C99A4;fill-opacity:1;" fill-rule="evenodd" clip-rule="evenodd" d="M175.999 181.333C177.537 181.333 179.024 181.117 180.431 180.712L205.611 215.963L174.634 237.647C172.013 235.771 168.802 234.667 165.333 234.667C156.496 234.667 149.332 241.831 149.332 250.668C149.332 258.329 154.718 264.733 161.91 266.301L168.834 321.692C163.595 324.321 159.999 329.741 159.999 336.002C159.999 344.839 167.163 352.002 175.999 352.002C182.966 352.002 188.893 347.549 191.09 341.334H246.244C248.44 347.549 254.367 352.002 261.334 352.002C267.596 352.002 273.017 348.405 275.645 343.165L331.034 350.089C332.601 357.282 339.005 362.669 346.668 362.669C355.505 362.669 362.669 355.505 362.669 346.669C362.669 337.929 355.661 330.826 346.958 330.671L335.165 295.293C338.92 292.365 341.335 287.799 341.335 282.668C341.335 273.831 334.171 266.668 325.335 266.668C324.665 266.668 324.005 266.709 323.358 266.789L316.025 252.123L335.979 241.239C338.812 243.785 342.559 245.334 346.668 245.334C355.505 245.334 362.669 238.171 362.669 229.334C362.669 220.497 355.505 213.334 346.668 213.334C343.254 213.334 340.09 214.403 337.492 216.225L287.38 180.43C287.784 179.023 288.001 177.537 288.001 176C288.001 167.163 280.837 160 272.001 160C265.661 160 260.183 163.686 257.593 169.033L191.585 161.699C189.939 154.613 183.586 149.333 175.999 149.333C167.163 149.333 159.999 156.497 159.999 165.333C159.999 174.17 167.163 181.333 175.999 181.333ZM311.251 242.577L321.52 236.976L309.019 238.112L311.251 242.577ZM297.612 239.149L301.881 247.688L271.458 264.282L272.985 241.388L297.612 239.149ZM303.897 227.867L331.158 225.389C331.2 225.226 331.243 225.064 331.29 224.903L286.373 192.819L303.897 227.867ZM276.014 195.953L292.489 228.904L273.703 230.612L276.014 195.953ZM306.655 257.234L313.818 271.561C311.042 274.439 309.335 278.354 309.335 282.668C309.335 284.624 309.685 286.498 310.328 288.23L269.51 322.245C268.916 321.892 268.297 321.576 267.657 321.3L270.618 276.891L306.655 257.234ZM246.244 330.668H191.089C189.262 325.5 184.856 321.551 179.418 320.368L172.494 264.979C173.352 264.55 174.165 264.045 174.925 263.475L213.82 289.404C213.502 290.662 213.333 291.979 213.333 293.335C213.333 302.171 220.497 309.335 229.333 309.335C231.001 309.335 232.609 309.08 234.121 308.606L248.015 327.132C247.287 328.223 246.689 329.409 246.244 330.668ZM256.547 320.73L242.653 302.204C244.346 299.665 245.334 296.615 245.334 293.335C245.334 292.469 245.265 291.62 245.133 290.792L259.524 282.942L257.014 320.592C256.857 320.636 256.702 320.682 256.547 320.73ZM332.358 339.504L276.967 332.58C276.807 331.846 276.597 331.131 276.34 330.438L317.158 296.424C319.473 297.803 322.167 298.615 325.046 298.666L336.838 334.043C334.968 335.502 333.431 337.366 332.358 339.504ZM265.673 190.7L262.947 231.59L243.878 233.323C241.348 227.821 235.787 224.001 229.333 224.001C227.797 224.001 226.311 224.217 224.904 224.622L220.55 218.526L262.7 189.021C263.623 189.681 264.619 190.246 265.673 190.7ZM262.229 242.366L260.365 270.333L240.023 281.429C237.189 278.883 233.442 277.335 229.333 277.335C225.734 277.335 222.411 278.523 219.738 280.53L180.846 254.602C181.164 253.343 181.333 252.025 181.333 250.668C181.333 249.184 181.131 247.748 180.753 246.384L211.811 224.644L216.225 230.823C214.403 233.422 213.333 236.586 213.333 240.001C213.333 248.837 220.497 256.001 229.333 256.001C236.809 256.001 243.086 250.875 244.844 243.946L262.229 242.366ZM214.35 209.846L189.109 174.509C189.598 173.811 190.033 173.073 190.407 172.3L256.415 179.634C256.466 179.853 256.521 180.07 256.581 180.285L214.35 209.846Z" />
</g>
<defs>
<clipPath id="clip0_3676_6462">
<rect width="365" height="365" fill="white" style="fill:white;fill-opacity:1;"/>
</clipPath>
</defs>
</svg>
