<?xml version="1.0" encoding="UTF-8" standalone="no"?>
<!-- Generator: Adobe Illustrator 28.0.0, SVG Export Plug-In . SVG Version: 6.00 Build 0)  -->

<svg
   version="1.1"
   x="0px"
   y="0px"
   viewBox="0 0 40 40"
   xml:space="preserve"
   id="svg6"
   width="40"
   height="40"
   xmlns="http://www.w3.org/2000/svg"
   xmlns:svg="http://www.w3.org/2000/svg"><defs
   id="defs6" />
<style
   type="text/css"
   id="style1">
	.st0{fill:#014063;}
	.st1{display:none;}
	.st2{display:inline;}
	.st3{fill:#FFFFFF;}
</style>
<g
   id="Full_color"
   transform="matrix(0.01909793,0,0,0.01909793,-0.05301345,0.90397979)">
	<g
   id="g2">
		<path
   class="st0"
   d="m 84.4,862 c 19.2,-33.3 46.2,-59.4 77.3,-77.3 33.3,-19.2 69.7,-28.3 105.6,-28.3 38.5,0 74.5,10.3 105.6,28.3 33.3,19.2 59.4,46.2 77.3,77.3 12.1,20.9 20.1,43 24.5,65.4 38.8,189.2 175.1,267.5 358.5,205.9 22.2,-7.5 45,-11.2 67.7,-11.1 38.5,0 74.5,10.3 105.6,28.3 33.3,19.2 59.4,46.2 77.3,77.3 19.2,33.3 28.3,69.7 28.3,105.6 0,38.5 -10.3,74.5 -28.3,105.6 -19.2,33.3 -46.2,59.4 -77.3,77.3 -33.3,19.2 -69.7,28.3 -105.6,28.3 -23.6,0 -46.2,-3.9 -67.4,-11 v 0 c -183.9,-61.9 -320.4,16.7 -359,206.5 0,0 0,-0.1 0,-0.2 -4.5,23.2 -12.9,45 -24.3,64.8 -19.2,33.3 -46.2,59.4 -77.3,77.3 -33.3,19.2 -69.7,28.3 -105.6,28.3 -38.5,0 -74.5,-10.3 -105.6,-28.3 -33.3,-19.2 -59.4,-46.2 -77.3,-77.3 -19.2,-33.3 -28.3,-69.7 -28.3,-105.6 0,-38.5 10.3,-74.5 28.3,-105.6 19.2,-33.3 46.2,-59.4 77.3,-77.3 33.3,-19.2 69.7,-28.3 105.6,-28.3 24.3,0 47.6,4.1 69.4,11.7 122.3,40.6 223.5,18.8 288.6,-56.8 54.7,-63.4 54.6,-155.7 -0.1,-219.1 -65.3,-75.7 -166.9,-97.4 -289.7,-56.3 0,0 0,0 0,0 -22.3,7.6 -45.4,11.4 -68.2,11.3 -38.5,0 -74.5,-10.3 -105.6,-28.3 -33.3,-19.2 -59.4,-46.2 -77.3,-77.3 -19.2,-33.3 -28.3,-69.7 -28.3,-105.6 0,-38.3 10.3,-74.4 28.3,-105.5 z"
   id="path1" />
		<path
   d="m 2043.9,740 v 671.2 H 1797.7 V 740 c 0,-279.9 -152.9,-422.4 -386.2,-422.4 -233.3,0 -386.1,142.5 -386.1,422.4 v 302.3 c -38.2,-16.4 -80.2,-25.6 -124.4,-25.6 -41,0 -82.3,8 -121.8,24.4 V 742.6 c 0,-430.2 254,-653.1 632.4,-653.1 378.3,0 634.9,217.7 632.3,650.5 z"
   id="path2" />
	</g>
</g>


</svg>
